# xmcd
#
# Track frame offsets:
#	150
#	15605
#	31340
#	44000
#	62382
#	74875
#	85975
#	99145
#	110820
#	121895
#	138495
#
# Disc length: 2043 seconds
#
# Revision: 0
# Processed by: cddbd v1.5PL3 Copyright (c) Steve Scherf et al.
# Submitted via: dBpowerAMP V4.0
#
DISCID=9807f90b
DTITLE=Sammy Jay - Here's My Heart
DYEAR=1999
DGENRE=Country
TTITLE0=Here's My Heart
TTITLE1=I'll Remember You
TTITLE2=Daddy's Wild Hair
TTITLE3=Can't Stop Love
TTITLE4=Rhythm Of Life
TTITLE5=Love Thang
TTITLE6=I Could Be Presuaded
TTITLE7=Tell Me
TTITLE8=Till The End of Time
TTITLE9=Wave Of Love
TTITLE10=Close My Eyes
EXTD=Heard this kid, in 1999 - she was 6 yrs old,  in Nashville, TN. If you closed your eyes she could sound just like Patsy Kline.
EXTT0=
EXTT1=
EXTT2=
EXTT3=
EXTT4=
EXTT5=
EXTT6=
EXTT7=
EXTT8=
EXTT9=
EXTT10=
PLAYORDER=
